
<svg version="1.1" xmlns="http://www.w3.org/2000/svg" x="0px" y="0px" width="24px" height="24px" viewBox="0 0 24 24" xml:space="preserve"><style type="text/css">.st0{fill-rule:evenodd;clip-rule:evenodd;fill:#FC5200;}</style><path class="st0" d="M12 2c5.5 0 10 4.5 10 10s-4.5 10-10 10S2 17.5 2 12 6.5 2 12 2zM12 21c5 0 9-4 9-9s-4-9-9-9 -9 4-9 9S7 21 12 21zM11.5 11.5V6c0-0.3 0.2-0.5 0.5-0.5s0.5 0.2 0.5 0.5v5.5H18c0.3 0 0.5 0.2 0.5 0.5s-0.2 0.5-0.5 0.5h-5.5V18c0 0.3-0.2 0.5-0.5 0.5s-0.5-0.2-0.5-0.5v-5.5H6c-0.3 0-0.5-0.2-0.5-0.5s0.2-0.5 0.5-0.5H11.5z"/>
</svg>
