
<svg version="1.1" xmlns="http://www.w3.org/2000/svg" x="0px" y="0px" width="24px" height="24px" viewBox="0 0 24 24" xml:space="preserve"><path d="M12 22c-0.71-0.004-1.365-0.385-1.72-1h-1.1c0.573 1.555 2.298 2.351 3.852 1.778 0.824-0.304 1.474-0.953 1.778-1.778h-1.09C13.365 21.615 12.71 21.996 12 22zM20.95 18.68L20 15.84V10c0-4.418-3.582-8-8-8s-8 3.582-8 8v5.84l-0.95 2.85c-0.171 0.525 0.116 1.09 0.641 1.261C3.791 19.983 3.895 20 4 20h16c0.552 0.001 1.001-0.445 1.003-0.997C21.003 18.893 20.985 18.784 20.95 18.68zM4 19l1-3v-6c0-3.866 3.134-7 7-7s7 3.134 7 7v6l1 3H4z"/></svg>
