

<!-- Generator: Adobe Illustrator 22.0.1, SVG Export Plug-In . SVG Version: 6.00 Build 0)  -->
<svg version="1.1" id="Layer_1" xmlns="http://www.w3.org/2000/svg" xmlns:xlink="http://www.w3.org/1999/xlink" x="0px" y="0px" width="24" height="24"
	 viewBox="0 0 24 24" style="enable-background:new 0 0 24 24;" xml:space="preserve">
<style type="text/css">
	.st0{fill:#606065;}
	.st1{fill:#2D2D32;}
	.st2{fill:#FFFFFF;}
	.st3{fill:#FC4C01;}
</style>
<g id="Icons">
	                            <path d="M19 11a4.94 4.94 0 00-1.67.31L15.29 7h2.21a.5.5 0 01.25.93.5.5 0 10.5.87A1.5 1.5 0 0017.5 6h-3a.5.5 0 00-.45.71l.85 1.79H9L7.79 6H9a.5.5 0 000-1H5a.5.5 0 000 1h1.68L8.1 9l-1.25 2.37a5 5 0 103.1 5.13H12a.5.5 0 00.25-.07l.06-.05a.49.49 0 00.12-.11l3.2-6.14.78 1.64A5 5 0 1019 11zm-4.17-1.5L12 14.88 9.46 9.5zM5 20a4 4 0 111.39-7.74l-1.83 3.51a.5.5 0 00.44.73h3.95A4 4 0 015 20zm2.28-7.28a4 4 0 011.67 2.78H5.82zm2.67 2.78a5 5 0 00-2.21-3.67l.9-1.72 2.57 5.39zM19 20a4 4 0 01-2.15-7.37l1.7 3.58a.5.5 0 00.9-.43l-1.69-3.57A4 4 0 0119 12a4 4 0 010 8z"></path>

</g>

</svg>