<svg xmlns="http://www.w3.org/2000/svg" width="24" height="24" viewBox="0 0 24 24"><g fill="none" fill-rule="evenodd"><path fill="#CCC" fill-rule="nonzero" d="M4 22L20 22 20 12 4 12 4 22ZM2 10L22 10 22 24 2 24 2 10Z"/><polygon fill="#CCC" fill-rule="nonzero" points="2 2 22 2 22 0 2 0"/><polygon fill="#CCC" fill-rule="nonzero" points="8.5 18 15.5 18 15.5 16 8.5 16"/><polygon fill="#CCC" fill-rule="nonzero" points="11 13.5 11 20.5 13 20.5 13 13.5"/><polygon fill="#CCC" fill-rule="nonzero" points="2 5 22 5 22 3 2 3"/><polygon fill="#CCC" fill-rule="nonzero" points="2 8 16.5 8 16.5 6 2 6"/></g></svg>
