<?xml version="1.0" encoding="utf-8"?>
<!-- Generator: Adobe Illustrator 22.0.1, SVG Export Plug-In . SVG Version: 6.00 Build 0)  -->
<svg version="1.1" id="Layer_1" xmlns="http://www.w3.org/2000/svg" xmlns:xlink="http://www.w3.org/1999/xlink" x="0px" y="0px" width="24" height="96"
	 viewBox="0 0 24 96" style="enable-background:new 0 0 24 96;" xml:space="preserve">
<style type="text/css">
	.st0{fill:#606065;}
	.st1{fill:#2D2D32;}
	.st2{fill:#FFFFFF;}
</style>
<g id="Icons">
	<path class="st0" d="M21.2,19.8l-4.4-4.4c2.7-3.5,2.1-8.5-1.4-11.2S6.9,2.1,4.2,5.6s-2.1,8.5,1.4,11.2c2.9,2.2,6.9,2.2,9.8,0
		l4.4,4.4c0.4,0.4,1.1,0.3,1.4-0.1C21.6,20.8,21.6,20.2,21.2,19.8z M10.5,16.5c-3.3,0-6-2.7-6-6s2.7-6,6-6s6,2.7,6,6
		S13.8,16.5,10.5,16.5z"/>
</g>


</svg>
